<?xml version="1.0" standalone="no"?>
<!DOCTYPE svg PUBLIC "-//W3C//DTD SVG 20010904//EN"
 "http://www.w3.org/TR/2001/REC-SVG-20010904/DTD/svg10.dtd">
<svg version="1.0" xmlns="http://www.w3.org/2000/svg"
 width="500.000000pt" height="500.000000pt" viewBox="0 0 500.000000 500.000000"
 preserveAspectRatio="xMidYMid meet">

<g transform="translate(0.000000,500.000000) scale(0.100000,-0.100000)"
fill="#000000" stroke="none">
<path d="M0 2500 l0 -2500 2500 0 2500 0 0 2500 0 2500 -2500 0 -2500 0 0
-2500z m1350 -815 l0 -45 -110 0 -110 0 0 -50 0 -50 100 0 100 0 0 -45 0 -45
-100 0 -100 0 0 -80 0 -80 -50 0 -50 0 0 220 0 220 160 0 160 0 0 -45z m355
19 c91 -47 102 -187 21 -252 l-25 -19 30 -44 c17 -24 37 -56 45 -71 l15 -28
-60 0 -60 0 -33 60 -33 60 -47 0 -48 0 0 -60 0 -60 -55 0 -55 0 0 213 c0 118
3 217 8 221 4 4 63 6 132 4 102 -2 132 -7 165 -24z m495 -19 l0 -45 -115 0
-115 0 0 -45 0 -45 105 0 105 0 0 -40 0 -40 -105 0 -105 0 0 -45 0 -44 118 -3
117 -3 3 -42 3 -43 -175 0 -176 0 0 220 0 220 170 0 170 0 0 -45z m420 0 l0
-45 -115 0 -115 0 0 -45 0 -45 105 0 105 0 0 -40 0 -40 -105 0 -105 0 0 -45 0
-45 120 0 120 0 0 -45 0 -45 -175 0 -175 0 0 220 0 220 170 0 170 0 0 -45z
m385 18 c77 -40 115 -105 115 -193 0 -88 -38 -152 -115 -193 -34 -18 -61 -22
-172 -25 l-133 -4 0 222 0 222 133 -4 c109 -3 139 -8 172 -25z m525 -18 l0
-44 -117 -3 -118 -3 1 -27 c1 -16 2 -35 3 -43 1 -12 19 -15 101 -15 l100 0 0
-40 0 -40 -100 0 c-55 0 -100 -3 -101 -7 -1 -5 -2 -25 -3 -46 l-1 -37 118 0
117 0 0 -45 0 -45 -175 0 -175 0 0 213 c0 118 3 217 7 220 3 4 82 7 175 7
l168 0 0 -45z m205 -114 c30 -84 55 -155 57 -156 2 -2 28 68 58 155 l55 160
57 0 58 0 -21 -52 c-11 -29 -50 -128 -86 -220 l-66 -168 -57 0 -57 0 -46 118
c-25 64 -64 163 -86 220 l-40 103 61 -3 60 -3 53 -154z m-1658 -508 c-3 -10
-5 -2 -5 17 0 19 2 27 5 18 2 -10 2 -26 0 -35z m770 -15 c-2 -13 -4 -3 -4 22
0 25 2 35 4 23 2 -13 2 -33 0 -45z m351 0 c-3 -21 -4 -21 -18 -3 -9 11 -10 16
-2 11 8 -5 12 2 13 26 1 23 3 26 6 11 2 -13 3 -33 1 -45z m-976 29 c-7 -8 -8
-18 -4 -22 4 -5 1 -5 -5 -1 -10 5 -10 11 -1 26 7 11 14 17 17 15 2 -3 -1 -11
-7 -18z m805 -9 c-3 -8 -6 -5 -6 6 -1 11 2 17 5 13 3 -3 4 -12 1 -19z m-1144
-29 c18 -1 18 -2 4 -6 -20 -5 -47 13 -47 31 0 6 5 3 11 -6 5 -10 20 -19 32
-19z m168 -7 c-7 -2 -18 1 -23 6 -8 8 -4 9 13 5 13 -4 18 -8 10 -11z m670 0
c-7 -2 -18 1 -23 6 -8 8 -4 9 13 5 13 -4 18 -8 10 -11z m276 2 c-3 -3 -12 -4
-19 -1 -8 3 -5 6 6 6 11 1 17 -2 13 -5z m-890 -131 c-3 -10 -5 -2 -5 17 0 19
2 27 5 18 2 -10 2 -26 0 -35z m160 -15 c-2 -13 -4 -3 -4 22 0 25 2 35 4 23 2
-13 2 -33 0 -45z m791 31 c15 -1 15 -2 0 -6 -26 -6 -22 -31 5 -36 19 -4 18 -4
-5 -6 -27 -1 -28 1 -27 42 1 23 3 34 6 25 2 -10 12 -19 21 -19z m-1051 -11
c-3 -8 -6 -5 -6 6 -1 11 2 17 5 13 3 -3 4 -12 1 -19z m562 -25 c11 3 19 1 15
-4 -13 -21 -64 -1 -64 25 0 5 6 2 14 -9 8 -12 20 -16 35 -12z m164 -4 c18 -1
18 -2 4 -6 -20 -5 -47 13 -47 31 0 6 5 3 11 -6 5 -10 20 -19 32 -19z m-422 4
c13 -16 12 -17 -3 -4 -17 13 -22 21 -14 21 2 0 10 -8 17 -17z m-156 -3 c-3 -5
-14 -10 -23 -9 -14 0 -13 2 3 9 27 11 27 11 20 0z m-178 -6 c-3 -3 -12 -4 -19
-1 -8 3 -5 6 6 6 11 1 17 -2 13 -5z m926 -1 c-7 -2 -19 -2 -25 0 -7 3 -2 5 12
5 14 0 19 -2 13 -5z"/>
<path d="M1510 1570 l0 -70 60 0 c51 0 65 4 85 25 28 27 31 45 14 78 -18 33
-28 37 -96 37 l-63 0 0 -70z"/>
<path d="M2810 1511 l0 -131 55 0 c31 0 69 7 84 15 68 35 80 150 22 208 -26
27 -39 32 -96 35 l-65 4 0 -131z"/>
</g>
</svg>
